<?xml version="1.0" standalone="no"?>
<!DOCTYPE svg PUBLIC "-//W3C//DTD SVG 20010904//EN"
 "http://www.w3.org/TR/2001/REC-SVG-20010904/DTD/svg10.dtd">
<svg version="1.0" xmlns="http://www.w3.org/2000/svg"
 width="278.000000pt" height="390.000000pt" viewBox="0 0 278.000000 390.000000"
 preserveAspectRatio="xMidYMid meet">
<g transform="translate(0.000000,390.000000) scale(0.100000,-0.100000)"
fill="#000000" stroke="none">
<path d="M1785 3309 c-97 -34 -167 -96 -213 -189 -23 -48 -27 -67 -27 -145 0
-82 3 -97 33 -157 133 -270 514 -268 642 3 51 109 46 229 -15 332 -84 144
-265 211 -420 156z"/>
<path d="M823 2975 c-67 -18 -117 -50 -171 -109 -69 -75 -87 -124 -87 -236 0
-83 3 -102 28 -151 75 -154 243 -235 404 -195 165 40 272 176 273 343 0 166
-94 295 -252 345 -70 21 -123 22 -195 3z"/>
<path d="M1622 2520 c-63 -13 -159 -68 -199 -114 -49 -56 -83 -137 -90 -212
-3 -35 -7 -64 -8 -64 -2 0 -29 12 -61 27 -58 28 -62 28 -297 31 -328 5 -393
-8 -494 -101 -56 -52 -92 -113 -109 -186 -17 -70 -20 -711 -4 -742 10 -17 23
-19 160 -19 l150 0 0 -188 c0 -171 2 -190 19 -206 16 -14 40 -16 182 -14 l164
3 26 230 c14 127 29 245 34 263 10 47 80 117 130 131 53 14 301 13 342 -2 41
-15 88 -58 109 -98 10 -21 26 -118 45 -278 15 -135 28 -247 29 -248 0 -2 83
-3 184 -3 140 0 186 3 195 13 6 9 12 84 13 202 l3 188 59 19 c103 33 171 90
216 179 47 92 52 151 48 546 -4 348 -5 360 -28 418 -32 82 -123 173 -205 206
-57 22 -73 23 -315 25 -140 2 -274 -1 -298 -6z m-144 -689 c72 -37 112 -104
112 -188 0 -136 -141 -236 -265 -189 -79 31 -118 75 -136 156 -18 81 38 192
116 226 45 20 130 17 173 -5z"/>
</g>
</svg>
