<?xml version="1.0" standalone="no"?>
<!DOCTYPE svg PUBLIC "-//W3C//DTD SVG 20010904//EN"
 "http://www.w3.org/TR/2001/REC-SVG-20010904/DTD/svg10.dtd">
<svg version="1.0" xmlns="http://www.w3.org/2000/svg"
 width="1800.000000pt" height="1755.000000pt" viewBox="0 0 1800.000000 1755.000000"
 preserveAspectRatio="xMidYMid meet">
<g transform="translate(0.000000,1755.000000) scale(0.100000,-0.100000)"
fill="#000000" stroke="none">
<path d="M241 17480 c-19 -11 -44 -34 -55 -52 l-21 -33 -3 -2369 c-1 -1583 1
-2373 8 -2380 5 -5 10 -24 10 -41 0 -32 14 -45 84 -77 36 -17 109 -18 1225
-18 1181 0 1186 0 1226 21 22 11 50 32 62 47 23 27 23 28 23 409 0 368 1 383
19 393 11 5 74 10 140 10 117 0 120 -1 140 -26 12 -15 21 -38 21 -53 0 -14 7
-35 15 -45 8 -11 15 -28 15 -37 0 -40 114 -232 194 -326 33 -39 146 -153 151
-153 4 0 27 -18 52 -39 41 -37 188 -141 198 -141 2 0 21 -12 42 -26 21 -14 47
-30 58 -35 11 -5 27 -13 35 -18 8 -5 33 -17 55 -26 22 -10 47 -22 55 -27 8 -4
22 -11 30 -14 8 -3 28 -12 43 -20 16 -7 36 -14 45 -14 9 0 26 -7 36 -15 11 -8
29 -15 41 -15 12 0 30 -7 41 -15 10 -8 33 -15 50 -15 16 0 35 -5 42 -12 6 -6
30 -14 54 -18 24 -4 63 -12 88 -18 146 -34 190 -42 237 -42 28 0 87 -7 130
-15 89 -17 289 -20 360 -5 26 6 91 14 143 20 105 10 181 24 251 46 26 8 60 14
77 14 16 0 35 7 42 15 7 8 22 15 34 15 12 0 31 7 42 15 10 8 29 15 41 15 12 0
34 6 50 14 15 8 73 36 128 62 170 81 402 228 428 271 4 7 13 13 19 13 14 0
288 274 288 288 0 6 4 12 9 14 4 2 36 37 70 78 94 113 105 125 121 133 24 12
53 30 86 54 17 12 42 27 55 33 33 15 64 33 84 50 15 13 146 16 884 22 482 3
899 10 941 16 73 10 135 26 193 50 16 7 32 12 38 12 5 0 31 14 57 30 27 17 52
30 55 30 13 0 116 76 162 119 56 53 148 156 154 174 2 7 14 26 27 42 12 17 27
41 33 55 31 72 80 145 99 148 16 2 136 -113 501 -477 264 -265 483 -481 486
-481 4 0 33 -20 64 -44 32 -25 76 -52 97 -62 21 -9 46 -20 54 -25 8 -5 22 -12
30 -15 8 -3 29 -11 45 -19 120 -55 157 -64 280 -75 116 -10 302 -1 337 16 15
8 40 14 56 14 16 0 35 7 42 15 7 8 22 15 33 15 26 0 107 39 107 51 0 5 7 9 16
9 17 0 93 55 107 77 4 7 13 13 20 13 12 1 87 66 87 76 0 3 20 28 44 56 24 27
53 68 65 91 12 23 31 56 41 72 11 17 22 37 26 45 81 204 114 431 79 546 -8 27
-15 67 -15 90 0 22 -7 49 -15 60 -8 10 -15 33 -15 49 0 17 -7 39 -15 49 -8 11
-15 28 -15 38 0 10 -4 18 -9 18 -5 0 -13 10 -17 23 -4 12 -19 40 -33 62 -14
22 -28 45 -31 52 -3 6 -23 33 -45 59 -55 65 -2471 2480 -2554 2552 -99 88
-209 167 -287 208 -38 20 -76 43 -85 50 -8 8 -21 14 -27 14 -7 0 -38 13 -69
29 -79 39 -132 61 -144 61 -6 0 -25 6 -42 13 -31 13 -90 31 -187 57 -25 6 -74
15 -110 20 -36 5 -92 13 -125 19 -41 8 -571 11 -1690 11 -1417 -1 -1633 -3
-1649 -15 -11 -8 -29 -15 -40 -15 -12 0 -30 -7 -40 -15 -11 -8 -27 -15 -37
-15 -9 0 -22 -7 -29 -15 -7 -8 -23 -15 -35 -15 -12 0 -28 -7 -35 -15 -7 -8
-21 -15 -32 -15 -11 0 -32 -6 -46 -14 -15 -7 -43 -20 -62 -29 -19 -8 -66 -28
-105 -45 -38 -17 -86 -37 -107 -46 -20 -9 -43 -16 -51 -16 -8 0 -20 -7 -27
-15 -7 -8 -23 -15 -35 -15 -12 0 -28 -7 -35 -15 -7 -8 -26 -15 -42 -15 -16 0
-31 -6 -34 -15 -4 -8 -13 -15 -20 -15 -8 0 -41 -13 -74 -30 -33 -16 -66 -30
-74 -30 -8 0 -27 -6 -43 -14 -74 -38 -166 -76 -182 -76 -10 0 -24 -7 -31 -15
-7 -8 -20 -15 -29 -15 -9 0 -25 -7 -35 -15 -11 -8 -27 -15 -37 -15 -9 0 -22
-7 -29 -15 -7 -8 -21 -15 -31 -15 -17 0 -98 -34 -182 -76 -16 -8 -39 -14 -52
-14 -12 0 -25 -7 -29 -15 -3 -8 -16 -15 -28 -15 -13 0 -32 -7 -42 -15 -11 -8
-26 -15 -33 -15 -8 0 -41 -13 -75 -30 -33 -16 -66 -30 -73 -30 -7 0 -18 -7
-25 -15 -7 -8 -21 -15 -32 -15 -10 0 -31 -8 -45 -17 -23 -16 -53 -18 -220 -18
-119 0 -196 4 -202 10 -7 7 -12 147 -13 396 -3 426 1 401 -70 445 l-38 24
-1212 -1 c-1176 0 -1214 -1 -1247 -19z m7364 -283 c746 -3 1010 -7 1040 -16
22 -7 63 -16 91 -21 28 -4 61 -13 72 -19 11 -6 30 -11 41 -11 12 0 38 -9 58
-20 21 -11 43 -20 48 -20 6 0 35 -11 63 -25 29 -14 58 -25 66 -25 7 0 19 -7
26 -15 7 -8 18 -15 25 -15 7 0 18 -7 25 -15 7 -8 19 -15 27 -15 8 0 32 -13 53
-30 21 -16 41 -30 45 -30 7 0 66 -44 114 -85 75 -64 352 -337 1401 -1386 868
-868 1177 -1183 1213 -1236 26 -39 47 -76 47 -81 0 -6 6 -23 14 -39 35 -71 40
-103 44 -251 2 -126 0 -158 -13 -178 -8 -13 -15 -36 -15 -52 0 -16 -7 -35 -15
-42 -8 -7 -15 -21 -15 -30 0 -10 -26 -54 -58 -97 -104 -140 -249 -237 -392
-263 -259 -47 -303 -42 -470 58 -19 12 -48 28 -65 35 -30 14 -235 213 -235
229 0 4 -3 8 -7 8 -12 0 -233 220 -233 231 0 5 -4 9 -9 9 -8 0 -32 23 -211
204 -52 53 -98 96 -102 96 -4 0 -8 4 -8 10 0 5 -50 58 -111 117 -62 59 -121
119 -133 132 -11 13 -56 58 -98 101 -84 84 -108 129 -108 209 -1 25 -7 57 -15
71 -8 14 -14 35 -15 47 0 12 -6 34 -14 50 -8 15 -29 60 -48 98 -40 85 -106
176 -167 230 -25 22 -53 48 -63 58 -10 9 -22 17 -27 17 -5 0 -14 7 -21 16 -8
8 -61 52 -119 96 -58 45 -108 85 -111 89 -9 13 -300 29 -685 39 -198 5 -394
14 -435 19 -47 7 -509 10 -1222 11 l-1148 0 0 -155 0 -155 1590 0 c1391 0
1595 -2 1627 -15 19 -8 48 -15 62 -15 15 0 36 -7 47 -15 10 -8 29 -15 40 -15
12 0 27 -7 34 -15 7 -8 16 -15 21 -15 33 0 200 -147 261 -230 40 -56 89 -168
109 -253 21 -86 25 -219 8 -282 -6 -22 -14 -56 -18 -75 -4 -19 -12 -44 -18
-55 -6 -11 -25 -51 -43 -88 -24 -50 -58 -93 -125 -161 -50 -52 -102 -97 -115
-101 -14 -4 -27 -11 -30 -15 -12 -18 -143 -70 -222 -89 -84 -21 -107 -21
-1165 -21 l-1078 0 -38 -25 c-47 -32 -62 -69 -71 -173 -3 -45 -14 -99 -22
-120 -42 -98 -100 -206 -116 -216 -10 -6 -18 -16 -18 -22 0 -17 -215 -221
-276 -261 -37 -25 -186 -113 -190 -113 -2 0 -47 -20 -100 -45 -52 -25 -101
-45 -109 -45 -8 0 -16 -4 -19 -9 -3 -5 -23 -12 -43 -16 -21 -4 -44 -12 -51
-17 -7 -6 -29 -14 -50 -19 -20 -4 -55 -12 -77 -18 -130 -32 -178 -41 -217 -41
-23 -1 -72 -7 -108 -15 -89 -20 -328 -20 -403 0 -32 8 -84 15 -115 15 -31 0
-73 5 -92 11 -19 6 -55 15 -80 19 -68 13 -132 31 -162 46 -14 8 -37 14 -50 14
-12 0 -32 7 -42 15 -11 8 -28 15 -37 15 -10 0 -30 7 -46 14 -15 8 -35 17 -43
20 -8 3 -22 10 -30 15 -8 5 -40 21 -70 35 -93 44 -231 130 -295 185 -80 69
-185 183 -226 246 -80 123 -110 201 -118 310 -7 91 -25 132 -74 169 l-34 26
-225 0 c-207 0 -226 2 -242 19 -15 17 -17 113 -16 1306 0 709 3 1291 6 1294 3
3 112 8 242 11 266 6 229 -2 467 105 17 7 50 21 75 31 25 9 82 34 127 55 45
21 95 42 110 45 15 4 34 13 41 21 7 7 24 13 36 13 13 0 29 7 36 15 7 8 21 15
30 15 10 0 31 7 47 15 43 22 135 62 163 70 14 4 34 14 45 21 11 8 29 14 41 14
12 0 27 7 34 15 7 8 23 15 35 15 12 0 28 7 35 15 7 8 19 15 26 15 8 0 44 14
81 32 71 33 102 46 168 73 22 8 53 22 68 30 16 8 34 15 42 15 7 0 18 7 25 15
7 8 21 15 31 15 17 0 125 45 181 76 14 7 35 14 46 14 11 0 25 7 32 15 7 8 23
15 35 15 12 0 28 7 35 15 7 8 19 15 28 15 8 0 44 14 79 30 34 17 71 30 81 30
9 0 22 4 29 8 6 4 287 6 625 5 337 -2 1063 -4 1613 -6z m-5100 -2192 l0 -2180
-1000 -3 c-550 -1 -1010 0 -1022 3 l-23 5 0 2174 c0 1730 3 2175 13 2179 6 3
466 5 1022 4 l1010 -2 0 -2180z"/>
<path d="M8931 12888 c-23 -11 -58 -36 -76 -55 -30 -31 -34 -43 -40 -106 -3
-40 -5 -198 -3 -352 l3 -280 65 5 c89 7 225 5 283 -3 l47 -7 0 43 c3 278 -3
600 -12 635 -12 48 -67 112 -96 112 -9 0 -26 7 -36 15 -28 21 -84 18 -135 -7z"/>
<path d="M8705 12041 c-27 -4 -60 -12 -72 -19 -12 -7 -33 -12 -47 -12 -13 0
-37 -6 -53 -14 -15 -8 -46 -21 -68 -29 -66 -25 -69 -26 -90 -39 -38 -21 -50
-28 -70 -37 -11 -5 -37 -21 -58 -35 -21 -14 -42 -26 -47 -26 -6 0 -10 -3 -10
-7 0 -5 -17 -19 -38 -33 -62 -42 -262 -233 -262 -252 0 -4 -13 -21 -30 -38
-16 -17 -30 -33 -30 -36 0 -4 -13 -23 -30 -44 -16 -21 -30 -45 -30 -53 0 -9
-5 -19 -11 -22 -5 -4 -14 -17 -20 -28 -5 -12 -13 -29 -18 -37 -17 -31 -46
-102 -81 -200 -6 -19 -16 -54 -21 -78 -5 -23 -13 -51 -19 -61 -5 -11 -10 -38
-10 -61 0 -23 -8 -80 -17 -127 -15 -80 -15 -94 1 -241 17 -153 24 -189 65
-322 32 -101 47 -140 59 -152 7 -7 12 -19 12 -27 1 -9 12 -34 25 -56 14 -22
29 -49 35 -60 6 -11 19 -33 30 -50 11 -16 23 -38 26 -47 4 -10 10 -18 13 -18
4 0 21 -19 38 -43 17 -23 54 -67 82 -96 28 -29 51 -57 51 -62 0 -5 6 -9 13 -9
8 0 22 -10 33 -21 10 -12 55 -48 99 -80 44 -33 85 -63 92 -69 7 -5 19 -10 26
-10 8 0 20 -7 27 -15 7 -8 18 -15 25 -15 7 0 18 -7 25 -15 7 -8 23 -15 35 -15
12 0 28 -7 35 -15 7 -8 20 -15 29 -15 9 0 28 -6 42 -14 14 -7 38 -16 53 -20
15 -4 31 -17 36 -31 6 -15 10 -667 10 -1671 0 -1105 4 -1661 11 -1692 14 -63
73 -122 197 -197 9 -6 36 -23 59 -38 36 -23 53 -27 112 -27 49 0 72 4 81 15 7
8 19 15 26 15 7 0 32 24 55 53 23 28 63 77 89 107 27 30 75 87 107 125 32 39
61 72 66 73 4 2 7 7 7 12 0 4 11 20 25 36 198 228 225 268 233 345 6 66 -11
110 -91 229 -39 58 -82 122 -96 143 -13 20 -28 37 -33 37 -15 0 -9 60 7 66 8
4 15 11 15 16 0 6 12 27 28 47 15 20 36 52 46 71 11 19 31 51 46 70 69 91 90
138 90 200 0 32 -4 61 -9 64 -5 3 -12 18 -16 33 -3 15 -10 30 -14 33 -4 3 -18
23 -31 45 -13 22 -28 45 -33 50 -21 27 -98 143 -106 162 -5 11 -15 24 -20 28
-15 9 -15 1538 -1 1566 6 10 21 19 34 19 23 0 94 29 191 77 82 41 145 81 238
151 70 53 217 196 217 212 0 5 4 10 8 10 18 0 154 210 191 295 8 17 20 42 27
57 8 14 14 35 14 45 0 11 7 28 15 39 8 10 15 30 15 44 0 14 7 36 15 50 8 14
14 41 15 61 0 20 7 56 15 79 11 32 15 90 15 242 0 154 -3 207 -15 235 -8 19
-15 54 -15 77 0 23 -7 51 -15 62 -8 10 -15 33 -15 49 0 17 -7 39 -15 49 -8 11
-15 29 -15 40 0 17 -76 179 -113 241 -33 54 -139 188 -202 254 -69 72 -214
191 -234 191 -5 0 -14 6 -18 13 -20 30 -313 167 -360 167 -13 0 -34 6 -46 14
-12 8 -49 16 -82 18 l-60 3 0 -290 0 -290 52 -5 c29 -3 58 -11 65 -18 6 -6 18
-12 24 -12 20 0 81 -43 93 -65 6 -11 22 -38 36 -60 29 -47 31 -93 8 -157 -19
-54 -62 -104 -114 -136 -36 -22 -44 -22 -399 -22 -354 0 -364 1 -397 21 -44
28 -83 63 -83 76 0 6 -6 16 -13 22 -23 19 -42 117 -29 146 7 14 12 34 12 45 0
26 90 115 136 135 21 9 60 19 86 23 l48 7 1 290 c0 159 -3 290 -8 291 -4 0
-30 -2 -58 -5z"/>
<path d="M13266 5578 c-11 -6 -47 -14 -80 -19 -89 -11 -194 -29 -246 -41 -25
-6 -74 -14 -110 -18 -36 -4 -78 -13 -93 -19 -16 -6 -45 -11 -65 -11 -21 0 -53
-5 -72 -11 -19 -6 -64 -14 -100 -19 -69 -8 -144 -22 -250 -46 -36 -8 -85 -14
-110 -14 -25 -1 -56 -7 -70 -15 -14 -8 -44 -14 -67 -15 -23 0 -68 -7 -100 -15
-31 -8 -73 -15 -93 -15 -19 0 -53 -7 -75 -15 -22 -8 -58 -14 -80 -15 -22 0
-62 -7 -89 -15 -27 -8 -68 -15 -91 -15 -24 0 -62 -7 -85 -15 -23 -8 -59 -15
-79 -15 -20 0 -65 -6 -101 -15 -158 -35 -210 -45 -248 -45 -23 0 -53 -5 -69
-11 -15 -6 -57 -15 -93 -20 -101 -13 -190 -29 -244 -45 -26 -8 -69 -14 -95
-14 -25 0 -64 -7 -86 -15 -22 -8 -62 -14 -88 -15 -27 0 -57 -5 -68 -11 -11 -6
-50 -14 -87 -19 -100 -14 -190 -30 -253 -46 -30 -8 -80 -14 -110 -14 -33 0
-63 -6 -75 -15 -11 -8 -41 -14 -72 -15 -29 0 -62 -5 -73 -10 -11 -6 -56 -15
-101 -20 -45 -5 -86 -14 -92 -20 -5 -5 -28 -10 -51 -10 -22 0 -49 -7 -59 -15
-11 -8 -30 -15 -42 -15 -12 0 -27 -7 -34 -15 -7 -8 -23 -15 -35 -15 -13 0 -25
-7 -29 -15 -3 -8 -17 -15 -31 -15 -14 0 -28 -7 -31 -15 -4 -8 -14 -15 -24 -15
-10 0 -20 -3 -22 -7 -4 -10 -65 -53 -74 -53 -8 0 -194 -188 -194 -196 0 -3
-13 -23 -30 -44 -16 -21 -30 -43 -30 -50 0 -6 -11 -26 -24 -43 -13 -18 -31
-48 -39 -69 -9 -20 -25 -39 -37 -43 -21 -7 -39 -1 -138 41 -18 8 -40 14 -50
14 -9 0 -26 7 -36 15 -11 8 -29 15 -41 15 -12 0 -30 7 -41 15 -10 8 -28 15
-40 15 -11 0 -29 7 -40 15 -10 8 -28 15 -40 15 -11 0 -29 7 -40 15 -10 8 -31
15 -45 15 -14 0 -34 7 -45 15 -10 8 -27 15 -36 15 -17 0 -67 19 -121 46 -16 8
-38 14 -49 14 -11 0 -32 6 -46 14 -52 26 -103 46 -120 46 -10 0 -26 6 -37 14
-11 7 -31 16 -45 19 -14 3 -45 13 -70 21 -46 17 -59 22 -120 48 -19 9 -50 19
-67 22 -18 4 -35 12 -38 17 -4 5 -22 9 -41 9 -19 0 -34 4 -34 9 0 9 -65 35
-129 51 -18 5 -38 13 -44 19 -6 6 -19 11 -29 11 -17 0 -65 18 -121 46 -16 8
-39 14 -52 14 -12 0 -28 7 -35 15 -7 8 -25 15 -41 15 -15 0 -30 4 -34 9 -3 5
-20 13 -38 17 -17 3 -45 12 -62 19 -80 34 -166 45 -333 46 -129 0 -176 -4
-205 -16 -20 -8 -48 -15 -61 -15 -24 0 -71 -17 -128 -46 -14 -8 -33 -14 -41
-14 -8 0 -20 -7 -27 -15 -7 -8 -19 -15 -27 -15 -14 0 -233 -158 -233 -169 0
-3 -27 -37 -60 -76 -33 -38 -60 -74 -60 -78 0 -5 -11 -23 -24 -40 -13 -18 -34
-54 -46 -82 -74 -170 -70 -157 -101 -357 -11 -74 -11 -100 1 -165 7 -43 16
-100 20 -128 3 -27 11 -60 18 -72 7 -12 12 -29 12 -39 0 -16 48 -129 70 -164
5 -8 19 -33 30 -55 43 -80 202 -265 228 -265 7 0 12 -4 12 -9 0 -20 257 -171
290 -171 7 0 28 -7 48 -16 21 -9 52 -22 70 -30 18 -8 41 -14 51 -14 10 0 24
-7 31 -15 7 -8 27 -15 45 -15 18 0 38 -7 45 -15 7 -8 22 -15 34 -15 11 -1 32
-7 46 -15 14 -8 35 -14 46 -15 12 0 27 -6 33 -14 6 -8 26 -16 44 -19 18 -2 57
-15 87 -27 30 -12 67 -24 82 -27 15 -3 33 -11 39 -19 6 -8 24 -14 39 -14 15 0
33 -7 40 -15 7 -8 20 -15 29 -15 19 0 131 -38 146 -50 6 -4 21 -10 35 -13 34
-7 111 -35 132 -47 10 -6 26 -10 36 -10 10 0 27 -7 38 -15 10 -8 27 -15 36
-15 16 0 35 -7 123 -45 17 -7 39 -16 50 -18 11 -3 65 -22 120 -42 55 -20 111
-40 125 -45 14 -5 50 -18 80 -30 30 -11 88 -32 129 -46 41 -13 79 -28 85 -33
6 -4 22 -11 36 -14 14 -3 50 -15 80 -27 30 -12 70 -25 89 -30 18 -5 38 -13 44
-19 6 -6 20 -11 30 -11 10 0 31 -6 45 -14 31 -15 83 -34 127 -46 17 -4 56 -19
89 -34 32 -14 66 -26 75 -26 10 0 26 -7 37 -15 10 -8 27 -15 37 -15 19 0 66
-18 120 -46 16 -8 39 -14 51 -14 12 0 31 -7 42 -15 10 -8 27 -15 36 -15 10 0
32 -6 50 -14 18 -8 53 -22 78 -31 25 -9 58 -23 73 -31 16 -8 39 -14 52 -14 13
0 36 -6 52 -14 56 -28 104 -46 122 -46 10 0 24 -7 31 -15 7 -8 25 -15 41 -15
15 0 31 -5 34 -10 3 -6 14 -10 23 -10 10 0 34 -9 55 -20 20 -11 44 -20 53 -20
9 0 28 -6 42 -14 15 -7 60 -24 100 -37 41 -13 76 -27 79 -31 2 -5 11 -8 20 -8
15 0 129 -41 208 -74 17 -7 64 -24 105 -38 41 -14 113 -40 160 -57 47 -18 99
-36 115 -40 17 -4 39 -12 50 -18 44 -23 97 -43 113 -43 10 0 27 -7 38 -15 10
-8 27 -15 37 -15 11 0 35 -7 55 -16 21 -9 52 -22 70 -30 18 -8 41 -14 50 -14
10 0 27 -7 38 -15 10 -8 28 -15 40 -15 11 0 29 -7 40 -15 10 -8 31 -15 46 -15
15 0 29 -4 32 -9 3 -4 38 -19 78 -31 40 -13 82 -29 93 -37 11 -7 31 -13 46
-13 15 0 32 -7 39 -15 7 -8 21 -15 32 -15 11 0 34 -6 51 -14 18 -7 52 -21 77
-31 25 -9 60 -23 78 -31 18 -8 43 -14 56 -14 13 0 29 -7 36 -15 7 -8 21 -15
31 -15 18 0 66 -18 122 -46 16 -8 41 -14 56 -14 15 0 31 -4 37 -9 12 -13 115
-51 135 -51 9 0 22 -7 29 -15 7 -8 22 -15 33 -15 11 0 36 -5 54 -12 27 -10 44
-9 91 4 75 21 121 37 155 54 16 8 39 14 51 14 12 0 31 7 42 15 10 8 31 15 45
15 14 0 34 7 45 15 10 8 30 15 44 15 14 0 34 7 44 15 11 8 31 15 45 15 14 1
37 7 51 15 14 8 37 14 51 15 15 0 32 7 39 15 7 8 25 15 39 15 15 0 36 7 47 15
10 8 30 15 44 15 14 0 34 7 44 15 11 8 28 15 38 15 9 0 32 6 50 14 34 14 169
60 223 76 64 18 191 63 218 76 16 8 39 14 52 14 13 0 36 6 52 14 42 21 94 38
130 43 18 3 38 11 44 19 6 8 22 14 34 14 12 0 40 7 60 16 41 17 36 18 153 -32
18 -8 41 -14 50 -14 10 0 27 -7 38 -15 10 -8 25 -15 32 -15 7 0 33 -9 58 -20
41 -19 44 -23 44 -58 0 -20 -7 -46 -15 -56 -8 -11 -15 -29 -15 -41 0 -12 -7
-30 -15 -41 -8 -10 -15 -28 -15 -39 0 -11 -7 -33 -15 -49 -8 -15 -15 -35 -15
-44 0 -8 -7 -24 -17 -34 -12 -13 -16 -39 -17 -102 -1 -77 1 -87 24 -111 28
-31 116 -72 195 -92 11 -3 34 -11 50 -18 17 -7 50 -21 75 -30 25 -9 60 -23 78
-31 18 -8 41 -14 50 -14 10 0 26 -6 37 -14 11 -7 31 -16 45 -19 32 -7 111 -35
130 -46 9 -5 30 -12 48 -15 17 -4 34 -12 37 -17 4 -5 16 -9 29 -9 12 0 31 -7
42 -15 10 -8 28 -15 39 -15 11 0 32 -6 47 -14 15 -8 40 -17 57 -21 17 -4 33
-11 36 -16 4 -5 17 -9 30 -9 13 0 26 -4 29 -9 3 -4 38 -18 78 -30 40 -12 87
-29 103 -36 17 -8 59 -24 95 -36 36 -12 70 -26 75 -29 6 -4 21 -10 35 -13 14
-3 50 -15 80 -27 30 -12 70 -25 88 -30 18 -4 38 -13 45 -18 17 -14 119 -25
155 -17 40 8 102 71 102 104 0 14 7 35 15 45 8 11 15 29 15 40 0 12 7 30 15
40 8 11 15 27 15 35 0 9 7 29 15 45 8 15 15 33 15 38 0 6 6 24 13 41 21 49 38
100 44 127 3 14 10 30 15 37 6 7 14 27 18 45 14 54 44 136 76 201 8 16 14 39
14 51 0 12 4 26 9 31 6 6 21 44 35 86 13 42 29 85 34 95 13 26 33 83 39 114 3
14 12 34 19 45 8 11 14 27 14 37 0 9 6 32 14 50 8 18 22 53 31 78 9 25 22 59
29 75 20 48 38 98 43 125 3 14 10 30 15 37 6 7 14 27 18 45 5 18 18 58 30 88
12 30 25 66 30 80 5 14 22 61 38 105 17 44 36 96 42 115 7 19 18 49 25 65 20
50 37 99 42 125 3 14 12 34 19 45 8 11 14 26 14 33 0 8 6 28 14 45 8 18 16 41
19 52 7 24 34 102 46 130 20 47 41 105 62 168 12 37 26 70 30 73 5 3 9 15 9
27 0 13 6 31 14 42 7 11 16 31 19 45 6 27 32 102 46 135 5 11 12 29 14 40 3
11 15 45 27 75 12 30 25 70 30 89 5 18 13 38 19 44 6 6 11 20 11 32 0 12 7 30
15 41 8 10 15 28 15 40 0 11 7 29 15 40 8 10 15 34 15 52 0 17 4 32 9 32 9 0
35 65 51 129 5 18 13 38 19 44 6 6 11 20 11 32 0 12 7 30 15 41 8 10 15 27 15
37 0 11 6 31 14 45 16 33 35 85 46 131 5 18 13 38 19 44 6 6 11 20 11 32 0 11
6 29 14 40 7 11 16 31 19 45 7 34 35 111 47 132 6 10 10 26 10 35 0 10 7 27
15 37 8 11 15 29 15 41 0 11 8 32 17 45 14 19 18 44 17 104 0 79 -1 80 -38
112 -21 18 -55 38 -75 45 -20 6 -40 15 -46 20 -5 5 -21 9 -35 9 -14 0 -35 7
-46 15 -10 8 -27 15 -36 15 -17 0 -67 19 -121 46 -16 8 -37 14 -47 14 -19 0
-66 18 -123 46 -16 8 -35 14 -44 14 -8 0 -27 6 -41 14 -33 16 -85 35 -131 46
-18 5 -38 13 -44 19 -6 6 -18 11 -27 11 -8 0 -28 7 -44 15 -15 8 -38 15 -50
15 -12 0 -26 4 -31 9 -6 6 -44 21 -85 35 -78 26 -117 40 -210 76 -30 12 -68
26 -85 30 -53 15 -120 41 -129 51 -6 5 -18 9 -28 9 -9 0 -32 6 -50 14 -48 20
-105 41 -170 61 -56 17 -58 17 -101 -3 -47 -22 -97 -79 -97 -109 0 -11 -7 -28
-15 -39 -8 -10 -15 -31 -15 -45 0 -15 -6 -32 -14 -38 -8 -6 -16 -24 -19 -39
-5 -27 -30 -99 -46 -137 -5 -11 -12 -32 -15 -47 -5 -21 -12 -28 -31 -28 -13 0
-27 5 -30 10 -3 6 -17 10 -30 10 -23 0 -67 16 -128 46 -16 8 -38 14 -50 14
-12 0 -31 7 -41 15 -11 8 -27 15 -35 15 -9 0 -29 7 -45 15 -15 8 -34 15 -42
15 -7 0 -30 7 -51 16 -101 43 -151 62 -198 73 -17 4 -39 12 -50 18 -11 5 -35
17 -53 26 -19 9 -43 17 -54 17 -11 0 -32 6 -46 14 -36 18 -91 37 -124 43 -15
3 -33 11 -39 19 -6 8 -19 14 -28 14 -9 0 -47 12 -86 26 -38 14 -84 30 -102 35
-18 5 -35 14 -38 19 -4 6 -19 10 -34 10 -15 0 -36 7 -47 15 -10 8 -28 15 -40
15 -11 0 -29 7 -40 15 -10 8 -28 15 -39 15 -11 0 -29 6 -40 14 -11 7 -31 16
-45 19 -32 7 -111 35 -130 46 -9 5 -30 12 -48 15 -17 4 -34 12 -37 17 -4 5
-16 9 -29 9 -12 0 -31 7 -42 15 -10 8 -29 15 -41 15 -20 0 -33 5 -111 44 -39
19 -186 22 -216 4z m194 -322 c25 -9 52 -20 60 -25 9 -5 30 -12 48 -15 17 -4
34 -12 37 -17 4 -5 15 -9 27 -9 11 0 32 -6 46 -14 15 -7 60 -24 100 -36 40
-12 75 -26 78 -31 3 -5 13 -9 24 -9 10 0 48 -13 85 -30 37 -16 74 -30 82 -30
8 0 29 -6 46 -14 18 -7 61 -24 97 -36 36 -13 70 -26 75 -30 6 -4 21 -10 35
-13 14 -3 50 -15 80 -27 30 -12 70 -25 89 -30 18 -5 38 -13 44 -19 6 -6 21
-11 33 -11 12 0 36 -7 53 -15 17 -8 45 -22 62 -30 17 -8 38 -15 47 -15 9 0 30
-7 46 -15 15 -8 36 -15 46 -15 10 0 23 -7 30 -15 7 -8 25 -15 39 -15 15 0 36
-7 47 -15 10 -8 30 -15 44 -15 14 0 34 -7 44 -15 11 -8 29 -15 41 -15 12 0 30
-7 41 -15 10 -8 28 -15 39 -15 11 0 29 -6 40 -14 11 -7 31 -16 45 -19 38 -8
130 -44 146 -58 16 -13 11 -63 -11 -114 -34 -79 -75 -193 -75 -211 0 -11 -6
-28 -13 -39 -8 -11 -16 -29 -20 -40 -3 -11 -15 -45 -27 -75 -11 -30 -33 -90
-47 -133 -14 -42 -29 -80 -34 -83 -5 -3 -9 -17 -9 -32 0 -15 -7 -36 -15 -46
-8 -11 -15 -29 -15 -40 0 -12 -7 -30 -15 -40 -8 -11 -15 -30 -15 -42 0 -12 -6
-35 -14 -51 -31 -64 -64 -152 -73 -193 -3 -14 -12 -34 -19 -45 -8 -11 -14 -27
-14 -37 0 -9 -6 -32 -14 -50 -8 -18 -22 -53 -31 -78 -9 -25 -22 -58 -29 -75
-20 -46 -37 -97 -46 -134 -5 -18 -13 -38 -19 -44 -6 -6 -11 -23 -11 -37 0 -14
-4 -30 -9 -36 -10 -9 -34 -72 -53 -134 -5 -19 -14 -39 -19 -44 -5 -6 -9 -19
-9 -30 0 -17 -24 -79 -51 -128 -5 -10 -9 -31 -9 -47 0 -16 -7 -34 -15 -41 -8
-7 -15 -22 -15 -34 0 -12 -7 -31 -15 -42 -8 -10 -15 -27 -15 -37 0 -11 -6 -31
-14 -45 -16 -33 -35 -85 -46 -131 -5 -18 -13 -38 -19 -44 -6 -6 -11 -20 -11
-32 0 -12 -7 -30 -15 -41 -8 -10 -15 -28 -15 -40 0 -11 -7 -29 -15 -40 -8 -10
-15 -30 -15 -42 0 -13 -6 -36 -14 -50 -26 -52 -46 -103 -46 -120 0 -10 -7 -27
-15 -38 -8 -10 -15 -31 -15 -45 0 -15 -6 -32 -14 -38 -7 -6 -16 -29 -20 -50
-4 -28 -12 -40 -27 -44 -21 -6 -90 14 -142 39 -16 8 -36 14 -45 14 -9 0 -30 7
-46 15 -15 8 -38 15 -51 15 -12 0 -28 7 -35 15 -7 8 -23 15 -36 15 -13 0 -42
7 -64 16 -36 15 -44 15 -87 0 -25 -9 -56 -16 -67 -16 -12 0 -30 -7 -40 -15
-11 -8 -29 -15 -40 -15 -12 0 -30 -7 -40 -15 -11 -8 -34 -15 -52 -15 -17 0
-37 -7 -44 -15 -7 -8 -25 -15 -39 -15 -15 0 -36 -7 -47 -15 -10 -8 -29 -15
-40 -15 -12 0 -35 -7 -50 -15 -16 -8 -38 -15 -49 -15 -11 0 -29 -7 -39 -15
-11 -8 -32 -15 -46 -15 -14 0 -30 -4 -36 -8 -5 -5 -43 -19 -84 -31 -41 -13
-83 -27 -92 -31 -30 -16 -132 -50 -149 -50 -10 0 -30 -6 -46 -14 -37 -18 -92
-37 -125 -43 -15 -3 -33 -11 -39 -19 -6 -8 -26 -14 -43 -14 -18 0 -37 -5 -43
-11 -6 -6 -29 -15 -50 -19 -37 -8 -109 -32 -148 -50 -11 -4 -31 -11 -45 -13
-27 -5 -76 -22 -127 -44 -17 -7 -38 -13 -46 -13 -9 0 -19 -4 -22 -10 -3 -5
-15 -10 -26 -10 -27 0 -118 30 -125 41 -3 5 -17 9 -32 9 -15 0 -36 7 -46 15
-11 8 -29 15 -41 15 -12 0 -30 7 -41 15 -10 8 -27 15 -37 15 -11 0 -31 6 -45
14 -29 14 -79 33 -127 46 -53 15 -120 41 -129 51 -6 5 -19 9 -31 9 -12 0 -30
7 -41 15 -10 8 -30 15 -42 15 -13 0 -36 6 -50 14 -51 26 -103 46 -120 46 -9 0
-26 7 -36 15 -11 8 -30 15 -42 15 -12 0 -36 7 -53 15 -17 8 -45 22 -62 30 -17
8 -41 15 -53 15 -12 0 -27 5 -33 11 -6 6 -26 14 -44 19 -19 5 -59 18 -89 30
-30 12 -67 24 -82 27 -15 3 -33 11 -39 19 -6 8 -24 14 -39 14 -15 0 -33 7 -40
15 -7 8 -25 15 -39 15 -15 0 -36 7 -47 15 -10 8 -28 15 -40 15 -11 0 -29 7
-40 15 -10 8 -25 15 -33 15 -19 0 -213 71 -225 81 -6 5 -18 9 -28 9 -17 0 -65
18 -121 46 -16 8 -36 14 -46 14 -9 0 -26 7 -37 15 -10 8 -29 15 -41 15 -22 0
-67 17 -126 46 -16 8 -38 14 -50 14 -12 0 -31 7 -41 15 -11 8 -29 15 -40 15
-12 0 -30 7 -40 15 -11 8 -29 15 -41 15 -12 0 -30 7 -41 15 -10 8 -28 15 -40
15 -11 0 -29 7 -40 15 -10 8 -31 15 -45 15 -14 0 -34 7 -45 15 -10 8 -27 15
-37 15 -11 0 -31 6 -45 14 -52 26 -103 46 -120 46 -10 0 -26 6 -37 14 -11 7
-31 16 -45 19 -14 3 -50 15 -80 27 -30 12 -66 24 -80 27 -14 3 -34 12 -45 19
-11 8 -29 14 -40 14 -12 0 -30 7 -41 15 -10 8 -27 15 -37 15 -11 0 -35 7 -55
16 -21 9 -52 22 -70 30 -18 8 -40 14 -50 14 -9 0 -26 7 -36 15 -11 8 -29 15
-41 15 -12 0 -30 7 -41 15 -10 8 -28 15 -40 15 -11 0 -29 7 -40 15 -10 8 -27
15 -37 15 -11 0 -31 6 -45 14 -15 7 -56 23 -92 34 -104 34 -154 53 -165 63 -5
5 -21 9 -36 9 -15 0 -32 7 -39 15 -7 8 -23 15 -36 15 -21 0 -39 6 -129 45 -16
7 -39 16 -50 18 -39 10 -170 58 -190 69 -11 6 -33 15 -50 19 -16 4 -55 17 -85
29 -30 12 -70 25 -89 30 -18 5 -38 13 -44 19 -6 6 -19 11 -29 11 -16 0 -34 7
-123 45 -16 7 -39 15 -50 18 -11 3 -45 15 -75 27 -30 12 -70 25 -89 30 -18 5
-38 13 -44 19 -6 6 -20 11 -32 11 -11 0 -29 6 -40 14 -11 7 -31 16 -45 19 -14
3 -50 15 -80 27 -30 12 -66 24 -80 27 -14 3 -30 10 -37 15 -7 6 -27 14 -45 18
-18 5 -58 18 -88 30 -30 12 -70 25 -88 30 -18 4 -38 12 -45 17 -7 5 -39 17
-72 28 -33 10 -69 25 -80 32 -11 7 -29 13 -41 13 -12 0 -27 7 -34 15 -7 8 -18
15 -26 15 -38 0 -274 194 -274 226 0 7 -3 14 -7 16 -28 12 -97 154 -127 259
-21 74 -22 293 -1 329 8 14 14 37 15 51 0 15 7 32 15 39 8 7 15 22 15 35 0 12
14 41 30 63 17 23 30 45 30 49 0 5 31 40 68 80 69 73 192 163 223 163 10 0 20
4 23 9 13 20 107 44 216 56 94 10 132 10 205 -1 89 -13 171 -37 189 -55 6 -5
17 -9 25 -9 9 0 29 -7 45 -15 15 -8 36 -15 45 -15 9 0 29 -7 45 -15 15 -8 36
-15 45 -15 10 0 26 -7 37 -15 10 -8 28 -15 39 -15 11 0 29 -6 40 -14 11 -7 31
-16 45 -19 14 -3 50 -15 80 -27 30 -12 70 -25 89 -30 18 -5 38 -13 44 -19 6
-6 19 -11 29 -11 17 0 65 -18 121 -46 16 -8 41 -14 57 -14 15 0 33 -7 40 -15
7 -8 22 -15 34 -15 11 0 30 -7 40 -15 11 -8 29 -15 41 -15 12 0 26 -5 32 -11
6 -6 26 -14 44 -19 19 -5 59 -18 89 -30 30 -12 67 -24 82 -27 15 -3 33 -11 39
-19 6 -8 23 -14 38 -14 15 0 32 -5 38 -11 6 -6 26 -14 44 -19 19 -5 59 -18 89
-30 69 -26 218 -79 245 -86 11 -3 34 -12 50 -19 79 -34 102 -43 132 -49 43
-10 55 -27 59 -88 10 -146 48 -336 72 -360 7 -7 12 -19 12 -29 0 -27 96 -199
111 -199 5 0 9 -8 9 -17 0 -30 252 -263 285 -263 2 0 24 -13 48 -30 25 -16 48
-30 52 -30 4 0 23 -7 43 -16 21 -9 52 -22 70 -30 18 -8 41 -14 51 -14 10 0 38
-7 62 -15 61 -22 382 -22 453 0 27 8 71 15 97 15 26 0 60 5 76 11 15 6 55 15
88 20 33 4 85 13 115 19 139 29 208 40 238 40 18 0 49 7 69 15 19 8 54 15 77
15 23 0 57 5 76 11 19 6 62 14 95 19 102 14 198 31 240 41 22 6 72 14 110 19
39 4 83 12 98 19 16 6 48 11 71 11 24 0 63 7 86 15 23 8 59 15 80 15 20 0 59
7 86 15 27 8 70 15 95 15 26 0 63 7 82 15 20 8 56 15 79 15 24 0 65 7 92 15
27 8 68 15 91 15 24 0 59 7 78 15 20 8 56 15 80 15 25 0 64 7 87 15 23 8 59
15 79 15 20 0 61 7 91 15 30 8 74 15 96 15 23 0 58 7 77 15 20 8 57 15 82 15
26 0 55 5 65 10 11 6 47 13 82 16 35 4 81 12 103 19 33 11 39 17 37 37 -6 48
-20 135 -33 200 l-13 67 -65 -5 c-36 -3 -79 -10 -96 -16 -16 -6 -57 -14 -90
-19 -61 -8 -136 -21 -235 -41 -30 -6 -82 -14 -115 -18 -33 -5 -80 -13 -105
-19 -25 -5 -90 -17 -145 -26 -55 -9 -118 -21 -140 -26 -22 -6 -71 -14 -110
-19 -38 -5 -77 -11 -86 -15 -9 -3 -47 -10 -85 -15 -74 -10 -143 -23 -241 -46
-34 -8 -82 -14 -106 -14 -25 0 -58 -5 -74 -11 -15 -6 -55 -15 -88 -19 -74 -10
-170 -27 -252 -46 -34 -8 -83 -14 -108 -14 -26 0 -56 -5 -68 -12 -12 -6 -48
-15 -82 -19 -62 -8 -141 -22 -235 -41 -30 -6 -82 -14 -115 -19 -33 -4 -87 -13
-120 -19 -93 -18 -194 -37 -260 -50 -205 -40 -409 -34 -525 17 -66 29 -104 49
-151 81 -14 9 -39 26 -55 37 -54 35 -144 150 -185 235 -65 134 -79 191 -79
323 0 135 11 183 78 325 19 42 89 140 136 191 59 63 238 171 285 171 9 0 22 5
27 10 6 6 41 14 80 19 38 5 82 14 97 20 16 6 48 11 71 11 24 0 63 7 86 15 23
8 59 15 79 15 20 0 58 7 85 15 27 8 68 15 91 15 24 0 62 7 85 15 23 8 62 15
86 15 23 0 55 5 71 11 15 6 55 15 88 19 88 12 191 30 262 46 34 8 80 14 101
14 22 0 56 7 75 15 20 8 54 15 75 15 22 0 59 7 82 15 23 8 64 15 91 15 26 0
60 5 76 11 15 6 57 15 93 19 36 5 85 13 110 18 54 13 207 39 272 47 26 3 50
10 53 16 4 5 30 9 58 9 29 0 70 7 92 15 22 8 60 14 85 15 25 0 67 7 94 15 27
8 65 15 85 15 20 0 58 7 85 15 27 8 68 15 92 15 23 0 55 5 71 11 15 6 55 15
88 19 59 8 111 17 250 46 39 8 86 14 106 14 20 0 53 7 72 15 20 8 53 15 74 15
21 0 60 7 87 15 27 8 68 15 92 15 23 0 55 5 71 11 15 6 57 14 93 19 36 5 81
13 100 19 48 13 146 7 200 -13z m2505 -291 c17 -7 59 -23 95 -35 36 -12 70
-25 75 -30 6 -4 21 -10 35 -13 14 -3 50 -15 80 -27 30 -12 66 -24 80 -27 14
-3 30 -9 35 -13 12 -9 178 -69 215 -77 14 -3 32 -11 40 -18 8 -7 26 -15 40
-18 14 -3 45 -13 70 -21 47 -17 61 -23 123 -50 21 -9 45 -16 55 -16 9 0 26 -7
36 -15 11 -8 32 -15 47 -15 14 0 32 -7 39 -15 7 -8 22 -15 34 -15 12 0 27 -5
33 -11 6 -6 30 -15 54 -20 24 -6 49 -15 56 -21 17 -14 16 -60 -2 -84 -8 -10
-15 -31 -15 -45 0 -14 -7 -34 -15 -45 -8 -10 -15 -26 -15 -34 0 -8 -7 -28 -15
-44 -8 -15 -15 -36 -15 -45 0 -9 -7 -25 -15 -35 -8 -11 -15 -32 -15 -47 0 -14
-7 -32 -15 -39 -8 -7 -15 -20 -15 -29 0 -17 -33 -117 -49 -149 -8 -15 -24 -60
-61 -172 -7 -19 -18 -48 -26 -63 -8 -16 -14 -36 -14 -45 0 -9 -7 -26 -15 -36
-8 -11 -15 -29 -15 -41 0 -12 -7 -30 -15 -41 -8 -10 -15 -28 -15 -40 0 -11 -7
-29 -15 -40 -8 -10 -15 -30 -15 -44 0 -14 -7 -34 -15 -44 -8 -11 -15 -29 -15
-41 0 -12 -7 -30 -15 -41 -8 -10 -15 -28 -15 -39 0 -11 -6 -29 -14 -40 -7 -11
-16 -31 -19 -45 -3 -14 -15 -50 -27 -80 -12 -30 -24 -66 -27 -80 -3 -14 -12
-34 -19 -45 -8 -11 -14 -29 -14 -40 0 -12 -7 -30 -15 -41 -8 -10 -15 -30 -15
-44 0 -14 -7 -34 -15 -44 -8 -11 -15 -28 -15 -37 0 -10 -7 -31 -15 -48 -8 -17
-22 -45 -30 -62 -8 -17 -15 -43 -15 -59 0 -15 -7 -33 -15 -40 -8 -7 -15 -22
-15 -34 0 -12 -7 -31 -15 -42 -8 -10 -15 -28 -15 -40 0 -11 -7 -29 -15 -40 -8
-10 -15 -28 -15 -39 0 -11 -7 -33 -15 -49 -8 -15 -15 -33 -15 -38 0 -6 -6 -24
-14 -41 -8 -18 -16 -41 -19 -52 -6 -21 -20 -59 -58 -155 -11 -30 -23 -66 -26
-80 -3 -14 -12 -34 -19 -45 -8 -11 -14 -29 -14 -40 0 -11 -7 -29 -15 -39 -8
-11 -15 -30 -15 -42 0 -12 -6 -35 -14 -51 -28 -56 -46 -104 -46 -122 0 -10 -7
-24 -15 -31 -8 -7 -15 -27 -15 -45 0 -20 -6 -35 -15 -39 -8 -3 -15 -16 -15
-28 0 -13 -7 -36 -15 -52 -8 -15 -15 -35 -15 -43 0 -8 -7 -31 -16 -51 -9 -21
-22 -52 -30 -70 -8 -18 -14 -41 -14 -50 0 -10 -7 -27 -15 -38 -8 -10 -15 -29
-15 -41 0 -12 -6 -34 -14 -50 -32 -66 -62 -147 -76 -202 -5 -18 -13 -38 -19
-44 -6 -6 -11 -21 -11 -33 0 -12 -6 -35 -14 -51 -8 -15 -22 -48 -31 -73 -9
-25 -23 -60 -31 -78 -8 -18 -14 -40 -14 -50 0 -9 -7 -26 -15 -36 -8 -11 -15
-30 -15 -43 0 -33 -23 -38 -88 -19 -32 10 -68 20 -82 23 -14 3 -32 11 -40 18
-8 7 -28 15 -45 18 -38 6 -98 29 -116 44 -8 6 -27 13 -44 16 -16 2 -55 15 -85
27 -30 12 -64 24 -75 27 -11 3 -33 11 -50 18 -87 38 -107 45 -120 45 -8 0 -31
7 -52 16 -103 44 -151 62 -202 74 -18 5 -38 13 -44 19 -6 6 -20 11 -32 11 -11
0 -29 6 -40 14 -11 7 -31 16 -45 19 -28 6 -105 33 -135 47 -11 5 -31 10 -45
12 -21 3 -25 9 -28 43 -2 22 3 54 11 70 18 36 73 189 83 228 3 15 10 30 15 33
5 3 9 16 9 29 0 13 4 26 9 29 5 3 21 44 36 91 15 47 31 87 36 91 5 3 9 14 9
26 0 11 6 32 14 46 7 15 21 54 31 87 10 33 24 69 30 80 7 11 14 31 17 45 4 14
16 50 28 80 12 30 25 66 30 80 5 14 18 50 30 80 12 30 25 70 30 89 5 18 13 38
19 44 6 6 11 22 11 35 0 13 6 36 13 50 8 15 21 42 30 60 9 19 17 43 17 54 0
11 6 32 14 46 8 15 24 56 37 92 12 36 26 69 31 74 4 6 8 22 8 36 0 14 7 35 15
46 8 10 15 26 15 34 0 8 7 28 15 44 8 15 15 36 15 45 0 9 6 25 14 36 7 11 16
31 19 45 7 32 35 111 46 130 5 9 12 30 15 48 4 17 12 34 17 37 5 4 9 14 9 23
0 9 6 28 13 42 8 14 17 40 20 58 4 18 18 56 32 86 14 29 25 61 25 72 0 10 7
28 15 38 8 11 15 28 15 38 0 9 7 34 16 55 41 93 61 147 74 202 5 18 13 38 19
44 6 6 11 19 11 28 0 9 9 38 21 65 34 82 57 143 66 179 2 11 9 29 13 40 42 97
50 119 50 131 0 14 20 66 46 117 8 16 14 39 14 52 0 13 4 26 9 29 5 3 21 44
36 91 15 47 31 87 36 91 5 3 9 14 9 26 0 11 7 36 16 56 9 21 22 52 30 70 8 18
14 40 14 48 0 9 6 28 14 42 8 15 22 50 31 77 9 28 26 74 38 103 21 52 21 52
56 46 20 -4 50 -12 66 -19z"/>
</g>
</svg>
